<svg width="18" height="19" viewBox="0 0 18 19" fill="none" xmlns="http://www.w3.org/2000/svg">
<path d="M11.756 16.6632H6.47885C6.76368 17.8551 7.83556 18.7415 9.11738 18.7415C10.3992 18.7415 11.4711 17.8551 11.7559 16.6632H11.756Z" fill="#FAB615"/>
<path d="M2.09939 15.0385C2.30553 14.5907 2.6935 14.3976 3.2331 13.9703C4.05385 13.3219 5.07151 11.0937 4.98521 8.67069C4.91397 6.6749 4.99083 4.15078 7.30333 3.32256C7.08411 2.98715 6.96046 2.58793 6.96046 2.1588C6.96046 0.968868 7.92933 0 9.11926 0C10.3092 0 11.2781 0.968868 11.2781 2.1588C11.2781 2.59175 11.1506 2.99461 10.9296 3.3338C11.3718 3.4968 11.7335 3.72358 12.0259 3.99902C12.0783 4.04778 12.1271 4.09837 12.1758 4.14895C12.2246 4.19954 12.2696 4.25392 12.3127 4.3083C12.4458 4.4713 12.56 4.6437 12.6556 4.82738C13.2609 5.94801 13.2964 7.41532 13.2497 8.671C13.1635 11.094 14.1792 13.3221 15.0036 13.9706C15.5434 14.3979 15.9312 14.5909 16.1373 15.0388C16.2423 15.2693 16.2066 15.5167 16.0793 15.7041C16.053 15.7416 16.0231 15.7771 15.9912 15.8108C15.8637 15.9439 15.682 16.0264 15.4777 16.0264H2.76093C2.25309 16.0264 1.89142 15.4999 2.10317 15.037L2.09939 15.0385ZM10.0038 2.16077C10.0038 1.67358 9.60655 1.27439 9.11742 1.27439C8.62828 1.27439 8.23104 1.67361 8.23104 2.16077C8.23104 2.65175 8.62463 3.04534 9.11561 3.04715H9.12123C9.61221 3.04532 10.0058 2.64991 10.0058 2.16077H10.0038Z" fill="#FAB615"/>
<path d="M15.5226 10.8334C16.0042 9.85331 16.2479 8.79831 16.2479 7.69649C16.2479 6.56462 15.9911 5.48331 15.4833 4.48071L14.9154 4.76737C15.3765 5.68002 15.6107 6.66566 15.6107 7.69633C15.6107 8.69893 15.3877 9.66024 14.9511 10.5522L15.5208 10.8315L15.5226 10.8334Z" fill="#FAB615"/>
<path d="M2.71206 10.8334L3.28171 10.5542C2.84317 9.66035 2.62211 8.70089 2.62211 7.69829C2.62211 6.66758 2.85636 5.68184 3.31738 4.76933L2.75151 4.48267C2.24367 5.48527 1.98694 6.56654 1.98694 7.69844C1.98694 8.79842 2.2306 9.85342 2.71216 10.8354L2.71206 10.8334Z" fill="#FAB615"/>
<path d="M17.0312 11.7367C17.6739 10.4794 18.0019 9.11887 18.0001 7.69667C18.0001 6.26125 17.6496 4.83514 16.9862 3.57196L16.424 3.86804C17.0386 5.03926 17.3647 6.36224 17.3647 7.69659C17.3647 9.01773 17.0612 10.2789 16.4653 11.4462L17.0312 11.7348L17.0312 11.7367Z" fill="#FAB615"/>
<path d="M0.79335 10.8054L1.3893 10.5824C1.04446 9.66044 0.870216 8.68973 0.870216 7.69657C0.870216 6.36419 1.19622 5.04117 1.81097 3.87002L1.24876 3.57394C0.585375 4.83512 0.236885 6.26123 0.236885 7.69665C0.236885 8.76671 0.424336 9.81231 0.795325 10.8037L0.79335 10.8054Z" fill="#FAB615"/>
</svg>
