<svg width="32" height="19" viewBox="0 0 32 19" fill="none" xmlns="http://www.w3.org/2000/svg">
<path d="M30.7912 2.33314H0.981235C0.439145 2.33314 0 1.89372 0 1.3519C0 0.809812 0.439145 0.370667 0.981235 0.370667H30.7912C31.333 0.370667 31.7724 0.809812 31.7724 1.3519C31.7724 1.89372 31.333 2.33314 30.7912 2.33314Z" fill="#2E2D2D"/>
<path d="M30.7912 10.352H0.981235C0.439145 10.352 0 9.91255 0 9.37073C0 8.82891 0.439145 8.3895 0.981235 8.3895H30.7912C31.333 8.3895 31.7724 8.82891 31.7724 9.37073C31.7724 9.91255 31.333 10.352 30.7912 10.352Z" fill="#2E2D2D"/>
<path d="M30.7912 18.3708H0.981235C0.439145 18.3708 0 17.9316 0 17.3895C0 16.8477 0.439145 16.4083 0.981235 16.4083H30.7912C31.333 16.4083 31.7724 16.8477 31.7724 17.3895C31.7724 17.9316 31.333 18.3708 30.7912 18.3708Z" fill="#2E2D2D"/>
</svg>
