<svg width="22" height="17" viewBox="0 0 22 17" fill="none" xmlns="http://www.w3.org/2000/svg">
<path d="M17.2857 8.37068C17.2857 8.80634 16.9325 9.15939 16.497 9.15939C16.0613 9.15939 15.7083 8.80636 15.7083 8.37068C15.7083 7.935 16.0613 7.58197 16.497 7.58197C16.9325 7.58197 17.2857 7.935 17.2857 8.37068Z" fill="#FAB615"/>
<path d="M20.2729 5.91826H16.313C14.9605 5.91826 13.86 7.01852 13.86 8.37088C13.86 9.7234 14.9606 10.8235 16.313 10.8235H20.2729C20.8045 10.8235 21.2369 10.3911 21.2369 9.85957V6.88212C21.2369 6.35051 20.8045 5.91818 20.2729 5.91818V5.91826ZM16.4969 9.68534C15.7722 9.68534 15.1825 9.09553 15.1825 8.37088C15.1825 7.64623 15.7723 7.05642 16.4969 7.05642C17.2216 7.05642 17.8114 7.64623 17.8114 8.37088C17.8114 9.09553 17.2216 9.68534 16.4969 9.68534Z" fill="#FAB615"/>
<path d="M0.380249 14.7186C0.380249 15.6367 1.12718 16.3836 2.04524 16.3836H18.4472C19.3653 16.3836 20.1122 15.6367 20.1122 14.7186V14.034H0.380409L0.380249 14.7186Z" fill="#FAB615"/>
<path d="M20.1122 2.02284C20.1122 1.10474 19.3652 0.357849 18.4472 0.357849H2.04524C1.12714 0.357849 0.380249 1.10478 0.380249 2.02284V2.70747H20.112L20.1122 2.02284Z" fill="#FAB615"/>
<path d="M13.3342 8.37087C13.3342 6.72839 14.6706 5.39245 16.313 5.39245H20.1124V3.2334H0.380615V13.5081H20.1124V11.349H16.313C14.6706 11.349 13.3342 10.0129 13.3342 8.37063V8.37087Z" fill="#FAB615"/>
</svg>
